<svg width="55" height="59" viewBox="0 0 55 59" fill="none" xmlns="http://www.w3.org/2000/svg">
<path d="M37.9478 15.057C37.9478 16.2224 37.0054 17.1682 35.8396 17.1682H10.541C9.37521 17.1682 8.43284 16.2224 8.43284 15.057C8.43284 13.8916 9.37521 12.9457 10.541 12.9457H35.8396C37.0054 12.9457 37.9478 13.8916 37.9478 15.057ZM33.7314 21.3907H10.541C9.37521 21.3907 8.43284 22.3365 8.43284 23.5019C8.43284 24.6673 9.37521 25.6131 10.541 25.6131H33.7314C34.8972 25.6131 35.8396 24.6673 35.8396 23.5019C35.8396 22.3365 34.8972 21.3907 33.7314 21.3907ZM29.5149 29.8356H10.541C9.37521 29.8356 8.43284 30.7815 8.43284 31.9469C8.43284 33.1123 9.37521 34.0581 10.541 34.0581H29.5149C30.6808 34.0581 31.6232 33.1123 31.6232 31.9469C31.6232 30.7815 30.6808 29.8356 29.5149 29.8356ZM25.2985 38.2806H10.541C9.37521 38.2806 8.43284 39.2264 8.43284 40.3918C8.43284 41.5572 9.37521 42.503 10.541 42.503H25.2985C26.4644 42.503 27.4067 41.5572 27.4067 40.3918C27.4067 39.2264 26.4644 38.2806 25.2985 38.2806ZM53.9786 30.754L42.725 53.8488C41.9808 55.371 40.6927 56.5111 39.0968 57.06L35.1101 58.4323C34.8846 58.5104 34.6505 58.5484 34.425 58.5484C33.5501 58.5484 32.7321 57.9995 32.4327 57.1233L31.7602 55.1683H6.32463C2.83765 55.1683 0 52.3266 0 48.8346V6.61203C0 3.12004 2.83765 0.27832 6.32463 0.27832H40.056C43.543 0.27832 46.3806 3.12004 46.3806 6.61203V22.8432C47.0194 22.839 47.6561 22.9657 48.2485 23.2549L52.0391 25.1065C53.051 25.6005 53.81 26.4619 54.1768 27.528C54.5436 28.5942 54.474 29.7406 53.9786 30.754ZM42.1642 26.1156V6.61203C42.1642 5.44874 41.2197 4.50079 40.056 4.50079H6.32463C5.1609 4.50079 4.21642 5.44874 4.21642 6.61203V48.8367C4.21642 50 5.1609 50.948 6.32463 50.948H30.7335C30.7504 50.0359 30.9464 49.1323 31.3575 48.2899L42.1642 26.1156ZM50.1902 28.9025L46.3996 27.0509L35.146 50.1436C34.9014 50.644 34.8656 51.2309 35.0469 51.7587L35.7321 53.7517L37.7243 53.0655C38.2577 52.8819 38.6878 52.4997 38.9344 51.993L50.188 28.9003L50.1902 28.9025Z" fill="#965CF5"/>
</svg>
