<svg width="48" height="55" viewBox="0 0 48 55" fill="none" xmlns="http://www.w3.org/2000/svg">
<path d="M46.0826 20.75L27.3433 2.01065C25.4061 0.0733276 22.2536 0.0732172 20.3161 2.01065C18.5745 3.75214 18.4245 6.40818 19.7106 8.30475L19.6846 8.43519C18.3335 15.191 15.0444 21.3369 10.1725 26.2088L1.5772 34.804C-0.364761 36.7461 -0.365092 39.8891 1.5772 41.8312L6.2619 46.5159C8.20376 48.4578 11.347 48.4579 13.2891 46.5159L14.4603 45.3446L22.6587 53.543C24.6007 55.4851 27.7437 55.4852 29.6857 53.543C31.6232 51.6057 31.6232 48.4533 29.6857 46.516L26.1722 43.0024L27.3434 41.8312C29.2854 39.8893 29.2856 36.7463 27.3434 34.8041L26.5475 34.0081C30.4629 31.2668 34.9096 29.3583 39.6582 28.4085L39.7903 28.3821C41.7291 29.6911 44.3789 29.4807 46.0826 27.7769H46.0828C48.0199 25.8397 48.0199 22.6874 46.0826 20.75ZM10.9467 44.1735C10.2995 44.8207 9.2515 44.8208 8.60425 44.1734L3.91955 39.4887C3.2722 38.8412 3.2722 37.7937 3.91955 37.1464L12.1178 28.948L19.145 35.9751C18.3429 36.7772 11.7686 43.3515 10.9467 44.1735ZM27.3433 48.8582C27.989 49.5039 27.989 50.5548 27.3433 51.2006C26.6976 51.8463 25.6466 51.8463 25.0009 51.2006L16.8025 43.0022L19.145 40.6598L27.3433 48.8582ZM21.4874 38.3175C21.9853 37.8196 22.7306 37.0569 23.9069 36.0522L25.0009 37.1464C25.6483 37.7937 25.6483 38.8412 25.0009 39.4887L23.8297 40.6599L21.4874 38.3175ZM21.5577 33.7032L14.3896 26.5351C18.231 22.0995 20.9819 16.8635 22.4537 11.1753L36.9176 25.6392C31.2293 27.1108 25.9935 29.8617 21.5577 33.7032ZM43.74 25.4345C43.0926 26.0817 42.045 26.0817 41.3976 25.4345L22.6585 6.69535C22.0111 6.04788 22.0111 5.00036 22.6585 4.353C23.3058 3.70564 24.3536 3.70564 25.0009 4.353L43.74 23.092C44.3857 23.7378 44.3857 24.7886 43.74 25.4345Z" fill="#FFB711"/>
</svg>
