<svg width="67" height="66" viewBox="0 0 67 66" fill="none" xmlns="http://www.w3.org/2000/svg">
<path d="M12.5895 48.4218C9.2167 48.5327 6.0188 49.9491 3.67013 52.3722C1.32146 54.7954 0.00559069 58.0359 0 61.4106L0 62.7008C0 63.5761 0.347677 64.4154 0.966546 65.0343C1.58541 65.6532 2.42478 66.0008 3.29999 66.0008H42.8999C43.7751 66.0008 44.6145 65.6532 45.2334 65.0343C45.8522 64.4154 46.1999 63.5761 46.1999 62.7008V61.4106C46.1943 58.0359 44.8785 54.7954 42.5298 52.3722C40.1811 49.9491 36.9832 48.5327 33.6104 48.4218C32.5952 47.2859 31.2092 46.5478 29.6999 46.3395V44.3507C31.482 43.2785 32.9797 41.7929 34.0663 40.0195C35.1529 38.2461 35.7964 36.2371 35.9424 34.1625C36.5138 33.9868 37.0429 33.6953 37.4967 33.3062C37.9505 32.9171 38.3194 32.4388 38.5802 31.9009C39.4352 30.0306 39.7867 27.9693 39.5999 25.9213V23.2109C39.5999 18.8348 37.8615 14.638 34.7672 11.5437C31.6729 8.44932 27.476 6.71094 23.1 6.71094C18.7239 6.71094 14.5271 8.44932 11.4327 11.5437C8.33837 14.638 6.59999 18.8348 6.59999 23.2109V25.9235C6.41256 27.975 6.76484 30.0398 7.62189 31.913C7.88342 32.4497 8.25285 32.9267 8.7071 33.3141C9.16135 33.7016 9.69064 33.9911 10.2619 34.1647C10.399 36.2415 11.0383 38.254 12.1249 40.0292C13.2115 41.8045 14.7128 43.2893 16.5 44.3562V46.3362C14.9903 46.5454 13.6042 47.2846 12.5895 48.4218ZM16.973 48.4922C17.6947 49.4875 18.6809 50.2607 19.8198 50.7241C18.7839 51.4194 17.9696 52.3976 17.4735 53.5423C16.2976 52.9681 14.4716 51.7669 14.311 49.7836C15.0256 49.0629 15.9646 48.6073 16.973 48.4922ZM43.9999 61.4106V62.7008C43.9999 62.9926 43.884 63.2724 43.6777 63.4787C43.4715 63.685 43.1917 63.8008 42.8999 63.8008H3.29999C3.00826 63.8008 2.72847 63.685 2.52218 63.4787C2.31589 63.2724 2.2 62.9926 2.2 62.7008V61.4106C2.20565 58.6823 3.24172 56.0568 5.10073 54.0599C6.95974 52.063 9.50447 50.8421 12.2254 50.6416C13.0086 54.5191 17.6 55.9909 17.82 56.0525C17.9245 56.0843 18.033 56.1006 18.1423 56.1009C18.3876 56.1008 18.6259 56.0187 18.8193 55.8676C19.0126 55.7165 19.1499 55.5051 19.2093 55.2671C19.4405 54.3598 19.932 53.5399 20.6233 52.9084C21.3146 52.2769 22.1755 51.8614 23.1 51.713C24.0245 51.8623 24.8855 52.2781 25.5773 52.9094C26.2691 53.5407 26.7618 54.36 26.9951 55.2671C27.0544 55.5051 27.1917 55.7165 27.385 55.8676C27.5784 56.0187 27.8167 56.1008 28.0621 56.1009C28.1713 56.1006 28.2799 56.0843 28.3844 56.0525C28.5978 55.9865 33.1902 54.5191 33.9734 50.6405C36.6951 50.8397 39.2409 52.0604 41.1003 54.0578C42.9598 56.0552 43.9956 58.6816 43.9999 61.4106ZM31.8889 49.7825C31.7272 51.7526 29.9002 52.9604 28.7243 53.5379C28.2279 52.3951 27.4144 51.4186 26.3802 50.7241C27.519 50.2607 28.5052 49.4875 29.2269 48.4922C30.2349 48.6081 31.1735 49.0631 31.8889 49.7825ZM23.1 8.80093C26.8862 8.81974 30.512 10.3326 33.1888 13.0104C35.8657 15.6883 37.3771 19.3146 37.3944 23.1009C36.8488 22.9662 36.2759 22.9918 35.7444 23.1746C35.5278 23.2515 35.3219 23.3557 35.1317 23.4848C34.9438 21.657 34.2388 19.9206 33.0996 18.479C31.9603 17.0373 30.4338 15.9502 28.699 15.3448C28.3026 15.2344 27.8873 15.2094 27.4806 15.2714C27.0738 15.3334 26.6849 15.481 26.3395 15.7045C22.5092 17.988 18.2175 19.3875 13.7775 19.8009C13.0265 19.8391 12.3191 20.1649 11.8019 20.7107C11.2848 21.2565 10.9976 21.9805 11 22.7324V23.4309C10.827 23.3223 10.6425 23.233 10.45 23.1647C9.91939 22.9856 9.34836 22.9634 8.80548 23.1009C8.82312 19.3147 10.3346 15.6885 13.0114 13.0107C15.6882 10.3329 19.3138 8.82003 23.1 8.80093ZM12.4443 33.9051C12.4169 33.4867 12.2612 33.0869 11.9985 32.7601C11.7357 32.4334 11.3786 32.1956 10.9758 32.0791C10.6741 32.0013 10.3933 31.8577 10.1537 31.6586C9.91408 31.4595 9.72149 31.2098 9.58978 30.9274C8.79998 29.3368 8.79998 28.195 8.79998 25.9213C8.79443 25.8051 8.81739 25.6894 8.86686 25.5841C8.91633 25.4788 8.9908 25.3873 9.08379 25.3174C9.19566 25.2383 9.32957 25.1963 9.46658 25.1975C9.55198 25.1978 9.63674 25.2123 9.71738 25.2404C10.3268 25.4604 10.9032 26.9102 11.0033 27.5152C11.0157 27.8069 11.1435 28.0818 11.3585 28.2793C11.465 28.3771 11.5897 28.453 11.7255 28.5026C11.8613 28.5522 12.0056 28.5746 12.15 28.5685C12.2945 28.5623 12.4363 28.5278 12.5674 28.4668C12.6985 28.4059 12.8163 28.3197 12.9142 28.2132C13.012 28.1067 13.0878 27.982 13.1374 27.8462C13.187 27.7104 13.2094 27.5662 13.2033 27.4217V22.7324C13.2017 22.5471 13.271 22.3682 13.3969 22.2322C13.5229 22.0963 13.696 22.0135 13.8809 22.0009C18.7181 21.5647 23.3932 20.0362 27.5539 17.5305C27.6436 17.4796 27.7428 17.4477 27.8454 17.4369C27.948 17.4261 28.0517 17.4367 28.1501 17.4678C29.6021 18.0283 30.8465 19.022 31.7141 20.3142C32.5818 21.6064 33.0307 23.1343 32.9999 24.6904V27.5009C32.9971 27.7985 33.1105 28.0856 33.3159 28.301C33.5212 28.5165 33.8025 28.6434 34.0999 28.6548C34.2406 28.6611 34.381 28.6392 34.513 28.5903C34.645 28.5415 34.7658 28.4666 34.8684 28.3702C34.971 28.2738 35.0531 28.1578 35.1101 28.0291C35.167 27.9004 35.1976 27.7615 35.1999 27.6208V27.5911C35.3 26.9641 35.8764 25.4593 36.4803 25.2426C36.5849 25.2029 36.6974 25.189 36.8085 25.202C36.9195 25.2151 37.0258 25.2546 37.1183 25.3174C37.2116 25.3871 37.2863 25.4786 37.336 25.5839C37.3857 25.6892 37.4088 25.805 37.4032 25.9213C37.4032 28.195 37.4032 29.3368 36.6156 30.9219C36.4827 31.2076 36.2877 31.4602 36.0449 31.6611C35.8021 31.862 35.5176 32.0063 35.212 32.0835C34.8105 32.2028 34.4554 32.443 34.1952 32.7713C33.935 33.0996 33.7823 33.5001 33.7578 33.9183C33.5941 36.6382 32.4015 39.1939 30.4221 41.0665C28.4426 42.9391 25.8248 43.9882 23.1 44.0009C21.3588 44.0037 19.644 43.5759 18.1082 42.7557C18.073 42.737 18.0422 42.7117 18.0048 42.6963C16.4094 41.8216 15.0622 40.5562 14.0896 39.0185C13.1171 37.4809 12.5509 35.7214 12.4443 33.9051ZM23.1 46.2009C24.602 46.1978 26.0916 45.9289 27.5 45.4067V47.0963C27.3218 47.445 26.4363 48.7551 23.1 49.4734C19.7065 48.743 18.8496 47.4021 18.7 47.1106V45.4111C20.1089 45.9305 21.5983 46.1978 23.1 46.2009Z" fill="#47D990"/>
<path d="M62.6999 6.82222e-06C62.0199 0.00282608 61.3573 0.215699 60.8028 0.609502C60.2483 1.00331 59.829 1.5588 59.6024 2.2H52.8C52.8 1.61653 52.5682 1.05695 52.1556 0.644371C51.743 0.231792 51.1834 6.82222e-06 50.6 6.82222e-06H48.4C47.8165 6.82222e-06 47.2569 0.231792 46.8443 0.644371C46.4318 1.05695 46.2 1.61653 46.2 2.2H39.3976C39.1381 1.46607 38.6275 0.847496 37.9561 0.453611C37.2846 0.0597272 36.4955 -0.0841067 35.7283 0.0475315C34.961 0.17917 34.265 0.577804 33.7633 1.17298C33.2615 1.76815 32.9863 2.52155 32.9863 3.3C32.9863 4.07846 33.2615 4.83185 33.7633 5.42702C34.265 6.0222 34.961 6.42083 35.7283 6.55247C36.4955 6.68411 37.2846 6.54028 37.9561 6.14639C38.6275 5.75251 39.1381 5.13393 39.3976 4.4H46.2C46.201 4.84177 46.3351 5.27298 46.5846 5.63751C46.8342 6.00204 47.1877 6.28299 47.5992 6.4438L43.2894 13.2407C43.0003 13.7077 42.8686 14.2551 42.9136 14.8025C42.9585 15.3499 43.1777 15.8685 43.5391 16.2822L46.2 19.14V23.1C46.2 23.6834 46.4318 24.243 46.8443 24.6556C47.2569 25.0682 47.8165 25.3 48.4 25.3H50.6C51.1834 25.3 51.743 25.0682 52.1556 24.6556C52.5682 24.243 52.8 23.6834 52.8 23.1V19.14L55.4785 16.2679C55.8339 15.8548 56.0481 15.339 56.0899 14.7956C56.1316 14.2523 55.9987 13.7098 55.7106 13.2473L51.4008 6.4493C51.8131 6.28815 52.1672 6.00635 52.4169 5.64074C52.6665 5.27513 52.8 4.84271 52.8 4.4H59.6024C59.805 4.96889 60.1601 5.47113 60.6289 5.85185C61.0977 6.23257 61.6621 6.47711 62.2605 6.55875C62.8588 6.64039 63.4681 6.55599 64.0217 6.31477C64.5754 6.07355 65.0521 5.6848 65.3997 5.19099C65.7474 4.69718 65.9526 4.11732 65.993 3.51476C66.0333 2.91221 65.9073 2.31015 65.6287 1.77437C65.35 1.2386 64.9294 0.789719 64.4129 0.476792C63.8964 0.163865 63.3039 -0.00107103 62.6999 6.82222e-06ZM36.3 4.4C36.0824 4.4 35.8698 4.33549 35.6889 4.21462C35.508 4.09375 35.367 3.92195 35.2837 3.72095C35.2005 3.51995 35.1787 3.29878 35.2211 3.0854C35.2636 2.87202 35.3683 2.67602 35.5222 2.52219C35.676 2.36835 35.872 2.26358 36.0854 2.22114C36.2988 2.1787 36.5199 2.20048 36.7209 2.28374C36.9219 2.36699 37.0937 2.50798 37.2146 2.68887C37.3355 2.86977 37.4 3.08244 37.4 3.3C37.4 3.59174 37.2841 3.87153 37.0778 4.07782C36.8715 4.28411 36.5917 4.4 36.3 4.4ZM48.4 2.2H50.6V4.4H48.4V2.2ZM48.4 23.1V19.8H50.6V23.1H48.4ZM53.8516 14.7807L51.2215 17.6H47.7785L45.1671 14.8005C45.1271 14.7456 45.1039 14.6803 45.1004 14.6126C45.0969 14.5448 45.1132 14.4775 45.1473 14.4188L48.4 9.28839V13.2C48.4 13.4917 48.5159 13.7715 48.7222 13.9778C48.9284 14.1841 49.2082 14.3 49.5 14.3C49.7917 14.3 50.0715 14.1841 50.2778 13.9778C50.4841 13.7715 50.6 13.4917 50.6 13.2V9.28839L53.8538 14.4199C53.8861 14.4746 53.903 14.537 53.9026 14.6006C53.9022 14.6641 53.8846 14.7264 53.8516 14.7807ZM62.6999 4.4C62.4824 4.4 62.2697 4.33549 62.0888 4.21462C61.9079 4.09375 61.7669 3.92195 61.6837 3.72095C61.6004 3.51995 61.5786 3.29878 61.6211 3.0854C61.6635 2.87202 61.7683 2.67602 61.9221 2.52219C62.076 2.36835 62.272 2.26358 62.4853 2.22114C62.6987 2.1787 62.9199 2.20048 63.1209 2.28374C63.3219 2.36699 63.4937 2.50798 63.6146 2.68887C63.7354 2.86977 63.7999 3.08244 63.7999 3.3C63.7999 3.59174 63.6841 3.87153 63.4778 4.07782C63.2715 4.28411 62.9917 4.4 62.6999 4.4Z" fill="#47D990"/>
<path d="M65.9998 36.0258C65.9487 34.3154 65.4002 32.6571 64.4212 31.2537C63.4423 29.8503 62.0754 28.7627 60.488 28.1241C58.9005 27.4855 57.1613 27.3236 55.4832 27.6581C53.8052 27.9926 52.261 28.8091 51.0398 30.0077C50.2047 30.8247 49.5407 31.7999 49.0864 32.8762C48.6322 33.9526 48.3968 35.1086 48.3941 36.2769C48.3913 37.4452 48.6212 38.6024 49.0703 39.6809C49.5195 40.7594 50.1789 41.7377 51.0101 42.5586C51.5715 43.0983 52.0191 43.7449 52.3265 44.4604C52.6339 45.1759 52.7948 45.9457 52.7998 46.7243V49.4996C52.801 49.8841 52.9032 50.2615 53.0963 50.594C53.2893 50.9264 53.5665 51.2023 53.8998 51.3938V52.7996C53.8998 53.6748 54.2475 54.5142 54.8663 55.1331C55.4852 55.7519 56.3246 56.0996 57.1998 56.0996C58.075 56.0996 58.9144 55.7519 59.5332 55.1331C60.1521 54.5142 60.4998 53.6748 60.4998 52.7996V51.3938C60.8331 51.2023 61.1102 50.9264 61.3033 50.594C61.4964 50.2615 61.5986 49.8841 61.5998 49.4996V46.7298C61.5998 46.5626 61.6108 46.3998 61.6273 46.2293C61.6273 46.2194 61.6328 46.2106 61.6328 46.1996V46.182C61.8097 44.7698 62.4618 43.4598 63.4819 42.4673C64.3184 41.6219 64.9733 40.6144 65.4063 39.5067C65.8393 38.3989 66.0413 37.2144 65.9998 36.0258ZM59.3998 47.2996V49.4996H54.9998V47.2996H59.3998ZM58.2998 52.7996C58.2998 53.0914 58.1839 53.3712 57.9776 53.5774C57.7713 53.7837 57.4915 53.8996 57.1998 53.8996C56.9081 53.8996 56.6283 53.7837 56.422 53.5774C56.2157 53.3712 56.0998 53.0914 56.0998 52.7996V51.6996H58.2998V52.7996ZM59.5824 45.0996H54.8293C54.4939 43.5361 53.7036 42.1066 52.5578 40.9911C51.6278 40.0709 50.9923 38.8951 50.732 37.6129C50.4716 36.3308 50.5982 35.0002 51.0957 33.7901C51.5931 32.5801 52.439 31.5452 53.5259 30.8169C54.6127 30.0886 55.8915 29.6997 57.1998 29.6997H57.3494C59.033 29.7543 60.6336 30.4437 61.8301 31.6295C63.0265 32.8153 63.7301 34.4098 63.7998 36.0929C63.8308 36.9837 63.6793 37.8714 63.3545 38.7015C63.0297 39.5316 62.5385 40.2865 61.9111 40.9196C60.7558 42.0652 59.9485 43.5144 59.5824 45.0996Z" fill="#47D990"/>
<path d="M57.2003 31.9004C56.0333 31.9004 54.9142 32.364 54.089 33.1891C53.2639 34.0143 52.8003 35.1334 52.8003 36.3004C52.8003 36.5921 52.9162 36.8719 53.1225 37.0782C53.3288 37.2845 53.6086 37.4004 53.9003 37.4004C54.192 37.4004 54.4718 37.2845 54.6781 37.0782C54.8844 36.8719 55.0003 36.5921 55.0003 36.3004C55.0003 35.7169 55.2321 35.1573 55.6447 34.7448C56.0572 34.3322 56.6168 34.1004 57.2003 34.1004C57.492 34.1004 57.7718 33.9845 57.9781 33.7782C58.1844 33.5719 58.3003 33.2921 58.3003 33.0004C58.3003 32.7087 58.1844 32.4289 57.9781 32.2226C57.7718 32.0163 57.492 31.9004 57.2003 31.9004Z" fill="#47D990"/>
</svg>
