<svg width="61" height="60" viewBox="0 0 61 60" fill="none" xmlns="http://www.w3.org/2000/svg">
<path d="M41.2802 6.24779e-07C37.7265 -0.00091291 34.2449 1 31.2364 2.88741C28.228 4.77483 25.8152 7.47194 24.276 10.668C22.7368 13.864 22.1338 17.429 22.5366 20.952C22.9394 24.4751 24.3315 27.813 26.5525 30.581L19.8405 37.3891C18.9363 36.9607 17.9238 36.8135 16.9347 36.9664C15.9455 37.1194 15.0253 37.5656 14.2934 38.247L1.535 50.9222C0.628873 51.8299 0.120117 53.0589 0.120117 54.3401C0.120117 55.6213 0.628873 56.8502 1.535 57.758L2.36707 58.5882H2.45027C3.35997 59.4924 4.59164 60 5.87563 60C7.15961 60 8.39128 59.4924 9.30098 58.5882L21.8652 45.913C22.5765 45.1995 23.0429 44.2795 23.1974 43.285C23.3518 42.2906 23.1865 41.2728 22.725 40.378L29.548 33.5699C31.9063 35.4342 34.6773 36.7084 37.6298 37.2863C40.5822 37.8641 43.6304 37.7287 46.5197 36.8915C49.409 36.0542 52.0557 34.5394 54.2387 32.4735C56.4217 30.4075 58.0777 27.8504 59.0684 25.0157C60.059 22.181 60.3557 19.1509 59.9335 16.1785C59.5114 13.2061 58.3826 10.3775 56.6416 7.9291C54.9006 5.48067 52.5978 3.48338 49.9254 2.10402C47.2531 0.724648 44.2889 0.00323068 41.2802 6.24779e-07ZM19.0917 42.9794L6.27779 55.6546C6.22086 55.7292 6.14743 55.7897 6.06324 55.8313C5.97905 55.8729 5.88637 55.8945 5.79242 55.8945C5.69847 55.8945 5.60579 55.8729 5.5216 55.8313C5.4374 55.7897 5.36398 55.7292 5.30704 55.6546H5.22384L4.39177 54.8244C4.26535 54.6894 4.19584 54.511 4.19762 54.3262C4.19741 54.2389 4.21444 54.1524 4.24776 54.0717C4.28107 53.991 4.33001 53.9176 4.39177 53.8558L17.1779 41.0699C17.3302 41.0149 17.4971 41.0149 17.6494 41.0699C17.8346 41.0681 18.0133 41.1374 18.1486 41.2636L18.9807 42.0938C19.1061 42.2013 19.187 42.3516 19.2075 42.5153C19.228 42.679 19.1867 42.8444 19.0917 42.9794ZM51.9029 29.1419C49.516 31.582 46.353 33.118 42.9558 33.4866C39.5586 33.8553 36.1387 33.0337 33.2819 31.1627C30.4251 29.2916 28.3093 26.4875 27.2969 23.2308C26.2846 19.9741 26.4387 16.4675 27.733 13.3117C29.0272 10.1559 31.3809 7.54743 34.3909 5.93312C37.4009 4.31881 40.8798 3.79916 44.2316 4.46319C47.5834 5.12723 50.5995 6.93362 52.7631 9.57288C54.9267 12.2122 56.1032 15.52 56.091 18.9298C56.0772 22.7853 54.5311 26.4779 51.792 29.1972L51.9029 29.1419Z" fill="#31DBF8"/>
</svg>
