<svg width="60" height="60" viewBox="0 0 60 60" fill="none" xmlns="http://www.w3.org/2000/svg">
<path d="M45.4953 59.8228H14.3276C6.42697 59.8228 0 53.3959 0 45.4973V14.3256C0 6.42697 6.42697 0 14.3276 0H45.4973C53.3959 0 59.8228 6.42697 59.8228 14.3256V45.4973C59.8228 53.3959 53.3959 59.8228 45.4953 59.8228ZM14.3276 3.98819C8.62645 3.98819 3.98819 8.62645 3.98819 14.3256V45.4973C3.98819 51.1964 8.62645 55.8346 14.3276 55.8346H45.4973C51.1964 55.8346 55.8346 51.1964 55.8346 45.4973V14.3256C55.8346 8.62645 51.1964 3.98819 45.4953 3.98819H14.3276Z" fill="#2662FA"/>
<path d="M26.9197 39.8823C21.9724 39.8823 17.9463 35.4096 17.9463 29.9119V21.9355C17.9463 20.8407 18.8456 19.9414 19.9404 19.9414C21.0351 19.9414 21.9345 20.8407 21.9345 21.9355V29.9119C21.9345 33.2101 24.1699 35.8942 26.9197 35.8942C29.6696 35.8942 31.9049 33.2101 31.9049 29.9119V21.9355C31.9049 20.8348 32.7963 19.9414 33.899 19.9414C35.0018 19.9414 35.8931 20.8348 35.8931 21.9355V29.9119C35.8931 35.4096 31.8671 39.8823 26.9197 39.8823Z" fill="#2662FA"/>
<path d="M39.8813 39.8823C38.7865 39.8823 37.8872 38.983 37.8872 37.8883V21.9355C37.8872 20.8407 38.7865 19.9414 39.8813 19.9414C40.9761 19.9414 41.8754 20.8407 41.8754 21.9355V37.8883C41.8754 38.983 40.9761 39.8823 39.8813 39.8823Z" fill="#2662FA"/>
</svg>
