<svg width="55" height="55" viewBox="0 0 55 55" fill="none" xmlns="http://www.w3.org/2000/svg">
<path d="M41.4128 54.4546H13.0419C5.85024 54.4546 0 48.6044 0 41.4146V13.0401C0 5.85024 5.85024 0 13.0419 0H41.4146C48.6044 0 54.4546 5.85024 54.4546 13.0401V41.4146C54.4546 48.6044 48.6044 54.4546 41.4128 54.4546ZM13.0419 3.63031C7.85236 3.63031 3.63031 7.85236 3.63031 13.0401V41.4146C3.63031 46.6023 7.85236 50.8243 13.0419 50.8243H41.4146C46.6023 50.8243 50.8243 46.6023 50.8243 41.4146V13.0401C50.8243 7.85236 46.6023 3.63031 41.4128 3.63031H13.0419Z" fill="#F50963"/>
<path d="M26.3196 18.1523C25.3158 18.1523 24.5044 18.9655 24.5044 19.9675V27.2281C24.5044 30.2304 22.4696 32.6736 19.9665 32.6736C17.4634 32.6736 15.4286 30.2304 15.4286 27.2281V19.9675C15.4286 18.971 14.61 18.1523 13.6135 18.1523C12.617 18.1523 11.7983 18.971 11.7983 19.9675V27.2281C11.7983 32.2325 15.4631 36.3039 19.9665 36.3039C24.4699 36.3039 28.1347 32.2325 28.1347 27.2281V19.9675C28.1347 18.9655 27.3234 18.1523 26.3196 18.1523Z" fill="#F50963"/>
<path d="M38.4433 27.228L42.3804 20.9294C42.9122 20.0799 42.6527 18.96 41.805 18.4281C40.9519 17.8963 39.8337 18.1577 39.3037 19.0054L36.3032 23.8046L33.3046 19.0072C32.7746 18.1559 31.6564 17.8963 30.8033 18.43C29.9538 18.9618 29.6961 20.0817 30.2279 20.9312L34.1632 27.228L30.2261 33.5266C29.6979 34.3706 29.9575 35.5015 30.8015 36.0279C31.6456 36.5561 32.7746 36.2947 33.3028 35.4507L36.3032 30.6514L39.3019 35.4488C39.8301 36.2929 40.9591 36.5543 41.8032 36.0261C42.6472 35.4979 42.9068 34.3688 42.3786 33.5248L38.4433 27.228Z" fill="#F50963"/>
</svg>
